<svg xmlns="http://www.w3.org/2000/svg" viewBox="0 0 600 750" role="img" aria-labelledby="title"><title id="title">Garden Notes</title><rect width="600" height="750" fill="#e8e3cd"/><path d="M0 655 Q300 585 600 655 V750 H0Z" fill="#c4c8a1"/><g stroke="#53674a" stroke-width="10" fill="none"><path d="M170 680 Q130 340 205 115"/><path d="M315 680 Q355 350 310 190"/><path d="M465 680 Q430 400 490 265"/></g><g fill="#53674a"><ellipse cx="145" cy="310" rx="65" ry="25" transform="rotate(45 145 310)"/><ellipse cx="205" cy="225" rx="70" ry="25" transform="rotate(-35 205 225)"/><ellipse cx="305" cy="450" rx="70" ry="25" transform="rotate(35 305 450)"/><ellipse cx="365" cy="330" rx="65" ry="25" transform="rotate(-40 365 330)"/><ellipse cx="425" cy="505" rx="65" ry="25" transform="rotate(40 425 505)"/><ellipse cx="490" cy="395" rx="60" ry="25" transform="rotate(-40 490 395)"/></g></svg>
