<svg xmlns="http://www.w3.org/2000/svg" viewBox="0 0 600 750" role="img" aria-labelledby="title"><title id="title">Sunday Still Life</title><rect width="600" height="750" fill="#e6c4a4"/><path d="M0 535 H600 V750 H0Z" fill="#c48b69"/><path d="M225 390 Q155 455 195 580 Q275 620 345 580 Q385 455 315 390 V330 H225Z" fill="#a64e38"/><path d="M270 340 Q250 210 340 95" stroke="#3e5b43" stroke-width="12" fill="none"/><ellipse cx="275" cy="215" rx="70" ry="25" transform="rotate(40 275 215)" fill="#3e5b43"/><ellipse cx="322" cy="145" rx="65" ry="23" transform="rotate(-35 322 145)" fill="#657c52"/><path d="M430 470 Q380 495 385 560 Q405 610 470 580 Q510 545 465 490 L450 450Z" fill="#d5ac4f"/><path d="M445 462 L458 432" stroke="#3e5b43" stroke-width="8"/></svg>
